<svg width="100" height="24" viewBox="0 0 100 24" fill="none" xmlns="http://www.w3.org/2000/svg">
<g clip-path="url(#clip0_3_2)">
<path fill-rule="evenodd" clip-rule="evenodd" d="M6.06948 9.55684C10.5974 7.99615 11.3681 3.93064 10.7901 0.192681C10.7901 0.0578058 10.9057 -0.0385333 11.0213 2.3201e-06C15.3566 2.11946 20.2313 6.74374 20.2313 13.6802C20.2313 18.9981 16.108 23.6994 10.1157 23.6994C7.9775 23.7967 5.86779 23.179 4.11956 21.9441C2.37134 20.7091 1.08418 18.9271 0.461229 16.8793C-0.161719 14.8315 -0.0849729 12.6346 0.679354 10.6353C1.44368 8.63597 2.85206 6.94813 4.6822 5.83815C4.7978 5.76108 4.95195 5.83815 4.95195 5.97303C5.00975 6.68594 5.20243 8.47785 5.99241 9.55684H6.06948V9.55684Z" fill="url(#paint0_linear_3_2)"/>
<path fill-rule="evenodd" clip-rule="evenodd" d="M32.9867 19.4798L33.3143 19.0944L34.3355 22.3314L34.2006 22.4663C33.4299 23.1792 32.2738 23.5453 30.7902 23.5453H30.7324C29.3836 23.5453 28.3239 23.1599 27.5917 22.447C26.8596 21.7148 26.4742 20.6166 26.4742 19.2293V10.4046H23.873V6.84008H26.4742V2.54335H30.4819V6.84008H33.6611V10.4046H30.4626V18.3622C30.4626 18.7283 30.559 19.9037 31.6765 19.9037C32.2545 19.9037 32.794 19.6917 32.9867 19.4605V19.4798ZM35.1062 23.1792V6.85935H39.1139V23.1792H35.1062V23.1792ZM37.0908 0.19268C37.5663 0.192696 38.0312 0.333478 38.4268 0.597282C38.8225 0.861087 39.1312 1.23611 39.314 1.67508C39.4969 2.11405 39.5457 2.59732 39.4543 3.06399C39.3629 3.53065 39.1354 3.95982 38.8005 4.29741C38.4656 4.635 38.0383 4.86589 37.5723 4.96098C37.1064 5.05608 36.6228 5.01113 36.1824 4.83178C35.7419 4.65244 35.3645 4.34674 35.0975 3.95321C34.8306 3.55968 34.6861 3.09594 34.6823 2.62043C34.6823 1.31021 35.7806 0.19268 37.0908 0.19268ZM49.8846 6.45472C53.3528 6.45472 55.2603 8.34297 55.2603 11.7919V23.1599H51.2526V12.7553C51.1756 10.9056 50.2892 10.0578 48.401 10.0578C46.7054 10.0578 45.3374 11.0983 44.6438 11.9846V23.1599H40.636V6.87862H44.6438V8.61272C45.7998 7.49519 47.6495 6.49326 49.8846 6.49326V6.45472ZM68.5937 8.55492V0.886322H72.6014V23.1985H68.5937V21.5029C67.9804 22.1497 67.2427 22.6658 66.4248 23.0201C65.6069 23.3744 64.7258 23.5596 63.8345 23.5646C59.4607 23.5646 56.532 20.1349 56.532 15.0289C56.532 9.90366 59.4607 6.47399 63.8345 6.47399C64.7277 6.47807 65.6107 6.66477 66.4291 7.02262C67.2476 7.38048 67.9842 7.90193 68.5937 8.55492ZM68.5937 12.0039C68.147 11.4221 67.5763 10.9473 66.923 10.614C66.2697 10.2807 65.5503 10.0973 64.8172 10.0771C62.3316 10.0771 60.6746 12.0617 60.6746 15.0289C60.6746 17.9769 62.3316 19.9615 64.8172 19.9615C66.2623 19.9615 67.8422 19.1908 68.5937 18.0732V12.0039ZM81.9655 6.47399C86.7054 6.47399 90.0002 10.1349 90.0002 15.3372V16.4355H77.8808C78.2854 18.7283 80.0966 20.1927 82.5628 20.1927C84.1235 20.1927 85.8384 19.5183 86.821 18.5356L87.0908 18.3044L88.9983 21.0405L88.8056 21.2139C87.0002 22.8147 84.6464 23.6568 82.2353 23.5646C77.2256 23.5646 73.6996 20.0385 73.6996 15.0096C73.6607 13.8993 73.8465 12.7926 74.2459 11.7559C74.6452 10.7192 75.25 9.77391 76.0238 8.97673C76.7976 8.17954 77.7244 7.54693 78.7488 7.11685C79.7732 6.68678 80.8738 6.46812 81.9848 6.47399H81.9655ZM77.8615 13.4104H86.0888C85.8576 10.9634 83.8345 9.84586 81.9655 9.84586C79.1524 9.84586 78.0927 11.9653 77.8615 13.4297V13.4104ZM99.6919 6.47399H99.9809V10.5202L99.6341 10.4624C99.3451 10.4046 98.979 10.3661 98.6129 10.3661C97.322 10.3661 95.5301 11.2717 94.8557 12.2351V23.1599H90.848V6.85935H94.875V8.67052C96.2044 7.28324 97.9578 6.47399 99.6919 6.47399V6.47399Z" fill="#ADADAD"/>
</g>
<defs>
<linearGradient id="paint0_linear_3_2" x1="20.2313" y1="-0.00856018" x2="-3.1818" y2="19.9192" gradientUnits="userSpaceOnUse">
<stop stop-color="#FF7854"/>
<stop offset="1" stop-color="#FD267D"/>
</linearGradient>
<clipPath id="clip0_3_2">
<rect width="100" height="23.6994" fill="white"/>
</clipPath>
</defs>
</svg>
